<svg id="SvgjsSvg1006" width="770" height="1397.6770935058594" xmlns="http://www.w3.org/2000/svg" version="1.1" xmlns:xlink="http://www.w3.org/1999/xlink" xmlns:svgjs="http://svgjs.com/svgjs"><defs id="SvgjsDefs1007"><marker id="SvgjsMarker1032" markerWidth="16" markerHeight="12" refX="11" refY="6" viewBox="0 0 16 12" orient="auto" markerUnits="userSpaceOnUse" stroke-dasharray="0,0"><path id="SvgjsPath1033" d="M0,0 L16,6 L0,12 L0,0" fill="#323232" stroke="#323232" stroke-width="1"></path></marker><marker id="SvgjsMarker1130" markerWidth="16" markerHeight="12" refX="11" refY="6" viewBox="0 0 16 12" orient="auto" markerUnits="userSpaceOnUse" stroke-dasharray="0,0"><path id="SvgjsPath1131" d="M0,0 L16,6 L0,12 L0,0" fill="#323232" stroke="#323232" stroke-width="1"></path></marker><marker id="SvgjsMarker1148" markerWidth="16" markerHeight="12" refX="11" refY="6" viewBox="0 0 16 12" orient="auto" markerUnits="userSpaceOnUse" stroke-dasharray="0,0"><path id="SvgjsPath1149" d="M0,0 L16,6 L0,12 L0,0" fill="#323232" stroke="#323232" stroke-width="1"></path></marker><marker id="SvgjsMarker1164" markerWidth="16" markerHeight="12" refX="11" refY="6" viewBox="0 0 16 12" orient="auto" markerUnits="userSpaceOnUse" stroke-dasharray="0,0"><path id="SvgjsPath1165" d="M0,0 L16,6 L0,12 L0,0" fill="#323232" stroke="#323232" stroke-width="1"></path></marker><marker id="SvgjsMarker1180" markerWidth="16" markerHeight="12" refX="11" refY="6" viewBox="0 0 16 12" orient="auto" markerUnits="userSpaceOnUse" stroke-dasharray="0,0"><path id="SvgjsPath1181" d="M0,0 L16,6 L0,12 L0,0" fill="#323232" stroke="#323232" stroke-width="1"></path></marker><marker id="SvgjsMarker1184" markerWidth="16" markerHeight="12" refX="11" refY="6" viewBox="0 0 16 12" orient="auto" markerUnits="userSpaceOnUse" stroke-dasharray="0,0"><path id="SvgjsPath1185" d="M0,0 L16,6 L0,12 L0,0" fill="#323232" stroke="#323232" stroke-width="1"></path></marker><marker id="SvgjsMarker1188" markerWidth="16" markerHeight="12" refX="11" refY="6" viewBox="0 0 16 12" orient="auto" markerUnits="userSpaceOnUse" stroke-dasharray="0,0"><path id="SvgjsPath1189" d="M0,0 L16,6 L0,12 L0,0" fill="#323232" stroke="#323232" stroke-width="1"></path></marker></defs><g id="SvgjsG1008" transform="translate(25.00780067457697,25.006815334182477)"><path id="SvgjsPath1009" d="M 0 4Q 0 0 4 0L 716 0Q 720 0 720 4L 720 266.00356064238Q 720 270.00356064238 716 270.00356064238L 4 270.00356064238Q 0 270.00356064238 0 266.00356064238Z" stroke="rgba(50,50,50,1)" stroke-width="3" fill-opacity="1" fill="#ffffff"></path><path id="SvgjsPath1010" d="M 0 30L 720 30" stroke="rgba(50,50,50,1)" stroke-width="3" fill="none"></path><path id="SvgjsPath1011" d="M 0 0L 720 0L 720 270.00356064238L 0 270.00356064238Z" stroke="none" fill="none"></path><g id="SvgjsG1012"><text id="SvgjsText1013" font-family="微软雅黑" text-anchor="middle" font-size="26px" width="700px" fill="#b71c1c" font-weight="700" align="middle" lineHeight="150%" anchor="middle" family="微软雅黑" size="26px" weight="700" font-style="" opacity="1" y="-14" transform="rotate(0)"><tspan id="SvgjsTspan1014" dy="39" x="360"><tspan id="SvgjsTspan1015" style="text-decoration:;">用户态</tspan></tspan></text></g><g id="SvgjsG1016"><text id="SvgjsText1017" font-family="微软雅黑" text-anchor="start" font-size="26px" width="700px" fill="#b71c1c" font-weight="400" align="middle" lineHeight="150%" anchor="start" family="微软雅黑" size="26px" weight="400" font-style="" opacity="1" y="121.00178032119001" transform="rotate(0)"></text></g></g><g id="SvgjsG1018" transform="translate(308.6376229493495,73.77230108351944)"><path id="SvgjsPath1019" d="M 0 4Q 0 0 4 0L 153.45033591210571 0Q 157.45033591210571 0 157.45033591210571 4L 157.45033591210571 57.942089949201865Q 157.45033591210571 61.942089949201865 153.45033591210571 61.942089949201865L 4 61.942089949201865Q 0 61.942089949201865 0 57.942089949201865Z" stroke="rgba(50,50,50,1)" stroke-width="4" fill-opacity="1" fill="#ffffff"></path><path id="SvgjsPath1020" d="M 0 33L 157.45033591210571 33" stroke="rgba(50,50,50,1)" stroke-width="4" fill="none"></path><path id="SvgjsPath1021" d="M 0 0L 157.45033591210571 0L 157.45033591210571 61.942089949201865L 0 61.942089949201865Z" stroke="none" fill="none"></path><g id="SvgjsG1022"><text id="SvgjsText1023" font-family="微软雅黑" text-anchor="middle" font-size="20px" width="138px" fill="#323232" font-weight="700" align="middle" lineHeight="150%" anchor="middle" family="微软雅黑" size="20px" weight="700" font-style="" opacity="1" y="-6.5" transform="rotate(0)"><tspan id="SvgjsTspan1024" dy="30" x="79"><tspan id="SvgjsTspan1025" style="text-decoration:;">用户程序</tspan></tspan></text></g><g id="SvgjsG1026"><text id="SvgjsText1027" font-family="微软雅黑" text-anchor="start" font-size="20px" width="138px" fill="#323232" font-weight="400" align="middle" lineHeight="150%" anchor="start" family="微软雅黑" size="20px" weight="400" font-style="" opacity="1" y="24.47104497460093" transform="rotate(0)"><tspan id="SvgjsTspan1028" dy="30" x="10"><tspan id="SvgjsTspan1029" style="text-decoration:;">trace()</tspan></tspan></text></g></g><g id="SvgjsG1030"><path id="SvgjsPath1031" d="M387.6105882461068 137.71439103272132L387.6105882461068 155.92649068076184L387.6105882461068 155.92649068076184L387.6105882461068 170.23859032880256" stroke="#323232" stroke-width="3" fill="none" marker-end="url(#SvgjsMarker1032)"></path></g><g id="SvgjsG1034" transform="translate(262.1105882461069,176.13859032880254)"><path id="SvgjsPath1035" d="M 0 4Q 0 0 4 0L 247 0Q 251 0 251 4L 251 88Q 251 92 247 92L 4 92Q 0 92 0 88Z" stroke="rgba(50,50,50,1)" stroke-width="4" fill-opacity="1" fill="#ffffff"></path><path id="SvgjsPath1036" d="M 0 30L 251 30" stroke="rgba(50,50,50,1)" stroke-width="4" fill="none"></path><path id="SvgjsPath1037" d="M 0 0L 251 0L 251 92L 0 92Z" stroke="none" fill="none"></path><g id="SvgjsG1038"><text id="SvgjsText1039" font-family="微软雅黑" text-anchor="middle" font-size="20px" width="231px" fill="#323232" font-weight="700" align="middle" lineHeight="150%" anchor="middle" family="微软雅黑" size="20px" weight="700" font-style="" opacity="1" y="-8" transform="rotate(0)"><tspan id="SvgjsTspan1040" dy="30" x="125.5"><tspan id="SvgjsTspan1041" style="text-decoration:;">usys.S</tspan></tspan></text></g><g id="SvgjsG1042"><text id="SvgjsText1043" font-family="微软雅黑" text-anchor="start" font-size="20px" width="231px" fill="#323232" font-weight="400" align="middle" lineHeight="150%" anchor="start" family="微软雅黑" size="20px" weight="400" font-style="" opacity="1" y="23" transform="rotate(0)"><tspan id="SvgjsTspan1044" dy="30" x="10"><tspan id="SvgjsTspan1045" style="text-decoration:;">将系统调用号保存在a7</tspan></tspan><tspan id="SvgjsTspan1046" dy="30" x="10"><tspan id="SvgjsTspan1047" style="text-decoration:;">然后ecall进入内核态</tspan></tspan></text></g></g><g id="SvgjsG1048" transform="translate(25.00780067457697,375.67706298828125)"><path id="SvgjsPath1049" d="M 0 4Q 0 0 4 0L 716 0Q 720 0 720 4L 720 993.3333740234375Q 720 997.3333740234375 716 997.3333740234375L 4 997.3333740234375Q 0 997.3333740234375 0 993.3333740234375Z" stroke="rgba(50,50,50,1)" stroke-width="3" fill-opacity="1" fill="#ffffff"></path><path id="SvgjsPath1050" d="M 0 30L 720 30" stroke="rgba(50,50,50,1)" stroke-width="3" fill="none"></path><path id="SvgjsPath1051" d="M 0 0L 720 0L 720 997.3333740234375L 0 997.3333740234375Z" stroke="none" fill="none"></path><g id="SvgjsG1052"><text id="SvgjsText1053" font-family="微软雅黑" text-anchor="middle" font-size="26px" width="700px" fill="#b71c1c" font-weight="700" align="middle" lineHeight="150%" anchor="middle" family="微软雅黑" size="26px" weight="700" font-style="" opacity="1" y="-14" transform="rotate(0)"><tspan id="SvgjsTspan1054" dy="39" x="360"><tspan id="SvgjsTspan1055" style="text-decoration:;">内核态</tspan></tspan></text></g><g id="SvgjsG1056"><text id="SvgjsText1057" font-family="微软雅黑" text-anchor="start" font-size="26px" width="700px" fill="#b71c1c" font-weight="400" align="middle" lineHeight="150%" anchor="start" family="微软雅黑" size="26px" weight="400" font-style="" opacity="1" y="484.66668701171875" transform="rotate(0)"></text></g></g><g id="SvgjsG1058" transform="translate(61.218729654947936,446.62267338947925)"><path id="SvgjsPath1059" d="M 0 4Q 0 0 4 0L 649.0000000000001 0Q 653.0000000000001 0 653.0000000000001 4L 653.0000000000001 224.3877226142439Q 653.0000000000001 228.3877226142439 649.0000000000001 228.3877226142439L 4 228.3877226142439Q 0 228.3877226142439 0 224.3877226142439Z" stroke="rgba(50,50,50,1)" stroke-width="3" fill-opacity="1" fill="#ffffff"></path><path id="SvgjsPath1060" d="M 0 30L 653.0000000000001 30" stroke="rgba(50,50,50,1)" stroke-width="3" fill="none"></path><path id="SvgjsPath1061" d="M 0 0L 653.0000000000001 0L 653.0000000000001 228.3877226142439L 0 228.3877226142439Z" stroke="none" fill="none"></path><g id="SvgjsG1062"><text id="SvgjsText1063" font-family="微软雅黑" text-anchor="middle" font-size="20px" width="634px" fill="#323232" font-weight="700" align="middle" lineHeight="150%" anchor="middle" family="微软雅黑" size="20px" weight="700" font-style="" opacity="1" y="-8" transform="rotate(0)"><tspan id="SvgjsTspan1064" dy="30" x="327"><tspan id="SvgjsTspan1065" style="text-decoration:;">trampoline.S</tspan></tspan></text></g><g id="SvgjsG1066"><text id="SvgjsText1067" font-family="微软雅黑" text-anchor="start" font-size="20px" width="634px" fill="#323232" font-weight="400" align="middle" lineHeight="150%" anchor="start" family="微软雅黑" size="20px" weight="400" font-style="" opacity="1" y="106.19386130712195" transform="rotate(0)"></text></g></g><g id="SvgjsG1068" transform="translate(61.218729654947936,746.697373003322)"><path id="SvgjsPath1069" d="M 0 4Q 0 0 4 0L 649 0Q 653 0 653 4L 653 207.08871827425378Q 653 211.08871827425378 649 211.08871827425378L 4 211.08871827425378Q 0 211.08871827425378 0 207.08871827425378Z" stroke="rgba(50,50,50,1)" stroke-width="3" fill-opacity="1" fill="#ffffff"></path><path id="SvgjsPath1070" d="M 0 30L 653 30" stroke="rgba(50,50,50,1)" stroke-width="3" fill="none"></path><path id="SvgjsPath1071" d="M 0 0L 653 0L 653 211.08871827425378L 0 211.08871827425378Z" stroke="none" fill="none"></path><g id="SvgjsG1072"><text id="SvgjsText1073" font-family="微软雅黑" text-anchor="middle" font-size="20px" width="633px" fill="#323232" font-weight="700" align="middle" lineHeight="150%" anchor="middle" family="微软雅黑" size="20px" weight="700" font-style="" opacity="1" y="-8" transform="rotate(0)"><tspan id="SvgjsTspan1074" dy="30" x="326.5"><tspan id="SvgjsTspan1075" style="text-decoration:;">trap.c</tspan></tspan></text></g><g id="SvgjsG1076"><text id="SvgjsText1077" font-family="微软雅黑" text-anchor="start" font-size="20px" width="633px" fill="#323232" font-weight="400" align="middle" lineHeight="150%" anchor="start" family="微软雅黑" size="20px" weight="400" font-style="" opacity="1" y="97.54435913712689" transform="rotate(0)"><tspan id="SvgjsTspan1078" dy="30" x="10"><tspan id="SvgjsTspan1079" style="text-decoration:;"> </tspan></tspan></text></g></g><g id="SvgjsG1080" transform="translate(243.4859556352734,1009.4730682771747)"><path id="SvgjsPath1081" d="M 0 4Q 0 0 4 0L 284.4655480393491 0Q 288.4655480393491 0 288.4655480393491 4L 288.4655480393491 321.7583843099087Q 288.4655480393491 325.7583843099087 284.4655480393491 325.7583843099087L 4 325.7583843099087Q 0 325.7583843099087 0 321.7583843099087Z" stroke="rgba(50,50,50,1)" stroke-width="3" fill-opacity="1" fill="#ffffff"></path><path id="SvgjsPath1082" d="M 0 30L 288.4655480393491 30" stroke="rgba(50,50,50,1)" stroke-width="3" fill="none"></path><path id="SvgjsPath1083" d="M 0 0L 288.4655480393491 0L 288.4655480393491 325.7583843099087L 0 325.7583843099087Z" stroke="none" fill="none"></path><g id="SvgjsG1084"><text id="SvgjsText1085" font-family="微软雅黑" text-anchor="middle" font-size="20px" width="269px" fill="#323232" font-weight="700" align="middle" lineHeight="150%" anchor="middle" family="微软雅黑" size="20px" weight="700" font-style="" opacity="1" y="-8" transform="rotate(0)"><tspan id="SvgjsTspan1086" dy="30" x="144.5"><tspan id="SvgjsTspan1087" style="text-decoration:;">syscall()</tspan></tspan></text></g><g id="SvgjsG1088"><text id="SvgjsText1089" font-family="微软雅黑" text-anchor="start" font-size="20px" width="269px" fill="#323232" font-weight="400" align="middle" lineHeight="150%" anchor="start" family="微软雅黑" size="20px" weight="400" font-style="" opacity="1" y="154.87919215495435" transform="rotate(0)"><tspan id="SvgjsTspan1090" dy="30" x="10"><tspan id="SvgjsTspan1091" style="text-decoration:;"> </tspan></tspan></text></g></g><g id="SvgjsG1092" transform="translate(262.822465745198,1200.9739616560798)"><path id="SvgjsPath1093" d="M 0 4Q 0 0 4 0L 247 0Q 251 0 251 4L 251 103Q 251 107 247 107L 4 107Q 0 107 0 103Z" stroke="rgba(50,50,50,1)" stroke-width="3" fill-opacity="1" fill="#ffffff"></path><path id="SvgjsPath1094" d="M 0 30L 251 30" stroke="rgba(50,50,50,1)" stroke-width="3" fill="none"></path><path id="SvgjsPath1095" d="M 0 0L 251 0L 251 107L 0 107Z" stroke="none" fill="none"></path><g id="SvgjsG1096"><text id="SvgjsText1097" font-family="微软雅黑" text-anchor="middle" font-size="20px" width="231px" fill="#323232" font-weight="700" align="middle" lineHeight="150%" anchor="middle" family="微软雅黑" size="20px" weight="700" font-style="" opacity="1" y="-8" transform="rotate(0)"><tspan id="SvgjsTspan1098" dy="30" x="125.5"><tspan id="SvgjsTspan1099" style="text-decoration:;">sys_trace()</tspan></tspan></text></g><g id="SvgjsG1100"><text id="SvgjsText1101" font-family="微软雅黑" text-anchor="start" font-size="20px" width="231px" fill="#323232" font-weight="400" align="middle" lineHeight="150%" anchor="start" family="微软雅黑" size="20px" weight="400" font-style="" opacity="1" y="45.5" transform="rotate(0)"><tspan id="SvgjsTspan1102" dy="30" x="10"><tspan id="SvgjsTspan1103" style="text-decoration:;">执行该系统调用</tspan></tspan></text></g></g><g id="SvgjsG1104" transform="translate(99.55206298828125,534.1770629882812)"><path id="SvgjsPath1105" d="M 0 4Q 0 0 4 0L 224 0Q 228 0 228 4L 228 92.83333333333337Q 228 96.83333333333337 224 96.83333333333337L 4 96.83333333333337Q 0 96.83333333333337 0 92.83333333333337Z" stroke="rgba(50,50,50,1)" stroke-width="4" fill-opacity="1" fill="#ffffff"></path><path id="SvgjsPath1106" d="M 0 30L 228 30" stroke="rgba(50,50,50,1)" stroke-width="4" fill="none"></path><path id="SvgjsPath1107" d="M 0 0L 228 0L 228 96.83333333333337L 0 96.83333333333337Z" stroke="none" fill="none"></path><g id="SvgjsG1108"><text id="SvgjsText1109" font-family="微软雅黑" text-anchor="middle" font-size="20px" width="208px" fill="#323232" font-weight="700" align="middle" lineHeight="150%" anchor="middle" family="微软雅黑" size="20px" weight="700" font-style="" opacity="1" y="-8" transform="rotate(0)"><tspan id="SvgjsTspan1110" dy="30" x="114"><tspan id="SvgjsTspan1111" style="text-decoration:;">uservec</tspan></tspan></text></g><g id="SvgjsG1112"><text id="SvgjsText1113" font-family="微软雅黑" text-anchor="start" font-size="20px" width="208px" fill="#323232" font-weight="400" align="middle" lineHeight="150%" anchor="start" family="微软雅黑" size="20px" weight="400" font-style="" opacity="1" y="40.416666666666686" transform="rotate(0)"><tspan id="SvgjsTspan1114" dy="30" x="10"><tspan id="SvgjsTspan1115" style="text-decoration:;">保存用户寄存器</tspan></tspan></text></g></g><g id="SvgjsG1116" transform="translate(79.05206298828122,815.2860912775758)"><path id="SvgjsPath1117" d="M 0 4Q 0 0 4 0L 265 0Q 269 0 269 4L 269 103Q 269 107 265 107L 4 107Q 0 107 0 103Z" stroke="rgba(50,50,50,1)" stroke-width="3" fill-opacity="1" fill="#ffffff"></path><path id="SvgjsPath1118" d="M 0 30L 269 30" stroke="rgba(50,50,50,1)" stroke-width="3" fill="none"></path><path id="SvgjsPath1119" d="M 0 0L 269 0L 269 107L 0 107Z" stroke="none" fill="none"></path><g id="SvgjsG1120"><text id="SvgjsText1121" font-family="微软雅黑" text-anchor="middle" font-size="20px" width="249px" fill="#323232" font-weight="700" align="middle" lineHeight="150%" anchor="middle" family="微软雅黑" size="20px" weight="700" font-style="" opacity="1" y="-8" transform="rotate(0)"><tspan id="SvgjsTspan1122" dy="30" x="134.5"><tspan id="SvgjsTspan1123" style="text-decoration:;">usertrap</tspan></tspan></text></g><g id="SvgjsG1124"><text id="SvgjsText1125" font-family="微软雅黑" text-anchor="start" font-size="20px" width="249px" fill="#323232" font-weight="400" align="middle" lineHeight="150%" anchor="start" family="微软雅黑" size="20px" weight="400" font-style="" opacity="1" y="45.5" transform="rotate(0)"><tspan id="SvgjsTspan1126" dy="30" x="10"><tspan id="SvgjsTspan1127" style="text-decoration:;">设置stvec、判断陷阱类型</tspan></tspan></text></g></g><g id="SvgjsG1128"><path id="SvgjsPath1129" d="M213.55206298828136 633.0103963216146L213.55206298828136 723.1482437995952L213.5520629882813 723.1482437995952L213.5520629882813 809.8860912775758" stroke="#323232" stroke-width="3" fill="none" marker-end="url(#SvgjsMarker1130)"></path></g><g id="SvgjsG1132" transform="translate(456.55206298828125,538.7332015222134)"><path id="SvgjsPath1133" d="M 0 4Q 0 0 4 0L 224 0Q 228 0 228 4L 228 83.72105626546886Q 228 87.72105626546886 224 87.72105626546886L 4 87.72105626546886Q 0 87.72105626546886 0 83.72105626546886Z" stroke="rgba(50,50,50,1)" stroke-width="4" fill-opacity="1" fill="#ffffff"></path><path id="SvgjsPath1134" d="M 0 30L 228 30" stroke="rgba(50,50,50,1)" stroke-width="4" fill="none"></path><path id="SvgjsPath1135" d="M 0 0L 228 0L 228 87.72105626546886L 0 87.72105626546886Z" stroke="none" fill="none"></path><g id="SvgjsG1136"><text id="SvgjsText1137" font-family="微软雅黑" text-anchor="middle" font-size="20px" width="208px" fill="#323232" font-weight="700" align="middle" lineHeight="150%" anchor="middle" family="微软雅黑" size="20px" weight="700" font-style="" opacity="1" y="-8" transform="rotate(0)"><tspan id="SvgjsTspan1138" dy="30" x="114"><tspan id="SvgjsTspan1139" style="text-decoration:;">userret</tspan></tspan></text></g><g id="SvgjsG1140"><text id="SvgjsText1141" font-family="微软雅黑" text-anchor="start" font-size="20px" width="208px" fill="#323232" font-weight="400" align="middle" lineHeight="150%" anchor="start" family="微软雅黑" size="20px" weight="400" font-style="" opacity="1" y="20.86052813273443" transform="rotate(0)"><tspan id="SvgjsTspan1142" dy="30" x="10"><tspan id="SvgjsTspan1143" style="text-decoration:;">恢复用户寄存器</tspan></tspan><tspan id="SvgjsTspan1144" dy="30" x="10"><tspan id="SvgjsTspan1145" style="text-decoration:;">然后sret回到用户态</tspan></tspan></text></g></g><g id="SvgjsG1146"><path id="SvgjsPath1147" d="M260.1105882461069 222.13859032880254L213.55206298828125 222.13859032880254L213.55206298828125 528.2770629882813" stroke="#323232" stroke-width="3" fill="none" marker-end="url(#SvgjsMarker1148)"></path></g><g id="SvgjsG1150" transform="translate(436.05206298828114,815.2860912775758)"><path id="SvgjsPath1151" d="M 0 4Q 0 0 4 0L 265 0Q 269 0 269 4L 269 103Q 269 107 265 107L 4 107Q 0 107 0 103Z" stroke="rgba(50,50,50,1)" stroke-width="3" fill-opacity="1" fill="#ffffff"></path><path id="SvgjsPath1152" d="M 0 30L 269 30" stroke="rgba(50,50,50,1)" stroke-width="3" fill="none"></path><path id="SvgjsPath1153" d="M 0 0L 269 0L 269 107L 0 107Z" stroke="none" fill="none"></path><g id="SvgjsG1154"><text id="SvgjsText1155" font-family="微软雅黑" text-anchor="middle" font-size="20px" width="249px" fill="#323232" font-weight="700" align="middle" lineHeight="150%" anchor="middle" family="微软雅黑" size="20px" weight="700" font-style="" opacity="1" y="-8" transform="rotate(0)"><tspan id="SvgjsTspan1156" dy="30" x="134.5"><tspan id="SvgjsTspan1157" style="text-decoration:;">usertrapret</tspan></tspan></text></g><g id="SvgjsG1158"><text id="SvgjsText1159" font-family="微软雅黑" text-anchor="start" font-size="20px" width="249px" fill="#323232" font-weight="400" align="middle" lineHeight="150%" anchor="start" family="微软雅黑" size="20px" weight="400" font-style="" opacity="1" y="45.5" transform="rotate(0)"><tspan id="SvgjsTspan1160" dy="30" x="10"><tspan id="SvgjsTspan1161" style="text-decoration:;">设置stvec、trapframe</tspan></tspan></text></g></g><g id="SvgjsG1162"><path id="SvgjsPath1163" d="M570.5520629882809 813.7860912775758L570.5520629882809 720.8701745326291L570.552062988281 720.8701745326291L570.552062988281 632.3542577876823" stroke="#323232" stroke-width="3" fill="none" marker-end="url(#SvgjsMarker1164)"></path></g><g id="SvgjsG1166" transform="translate(256.6622502142965,1063.2608249986827)"><path id="SvgjsPath1167" d="M 0 0L 262.1129588813028 0L 262.1129588813028 121L 0 121Z" stroke="none" fill="none"></path><g id="SvgjsG1168"><text id="SvgjsText1169" font-family="微软雅黑" text-anchor="start" font-size="20px" width="263px" fill="#323232" font-weight="400" align="middle" lineHeight="150%" anchor="start" family="微软雅黑" size="20px" weight="400" font-style="" opacity="1" y="-7.5" transform="rotate(0)"><tspan id="SvgjsTspan1170" dy="30" x="0"><tspan id="SvgjsTspan1171" style="text-decoration:;">根据a7寄存器中保存的系统调</tspan></tspan><tspan id="SvgjsTspan1172" dy="30" x="0"><tspan id="SvgjsTspan1173" style="text-decoration:;">用号，执行相应的系统调用</tspan></tspan><tspan id="SvgjsTspan1174" dy="30" x="0"><tspan id="SvgjsTspan1175" style="text-decoration:;">系统调用的返回值保存在a0寄</tspan></tspan><tspan id="SvgjsTspan1176" dy="30" x="0"><tspan id="SvgjsTspan1177" style="text-decoration:;">存器中</tspan></tspan></text></g></g><g id="SvgjsG1178"><path id="SvgjsPath1179" d="M570.5520629882812 536.7332015222134L570.5520629882812 222.13859032880254L519.0105882461069 222.13859032880254" stroke="#323232" stroke-width="3" fill="none" marker-end="url(#SvgjsMarker1180)"></path></g><g id="SvgjsG1182"><path id="SvgjsPath1183" d="M213.5520629882812 923.7860912775759L213.5520629882812 1172.352260432129L238.08595563527342 1172.352260432129" stroke="#323232" stroke-width="3" fill="none" marker-end="url(#SvgjsMarker1184)"></path></g><g id="SvgjsG1186"><path id="SvgjsPath1187" d="M533.4515036746225 1172.352260432129L570.5520629882811 1172.352260432129L570.5520629882811 927.686091277576" stroke="#323232" stroke-width="3" fill="none" marker-end="url(#SvgjsMarker1188)"></path></g></svg>