<?xml version="1.0" standalone="no"?>
<!DOCTYPE svg PUBLIC "-//W3C//DTD SVG 20010904//EN"
 "http://www.w3.org/TR/2001/REC-SVG-20010904/DTD/svg10.dtd">
<svg version="1.0" xmlns="http://www.w3.org/2000/svg"
 width="512.000000pt" height="512.000000pt" viewBox="0 0 512.000000 512.000000"
 preserveAspectRatio="xMidYMid meet">

<g transform="translate(0.000000,512.000000) scale(0.100000,-0.100000)"
fill="#000000" stroke="none">
<path d="M1240 3959 c-475 -49 -865 -297 -1069 -680 -96 -182 -142 -346 -162
-586 -31 -373 58 -737 247 -1005 178 -253 472 -437 802 -502 129 -26 291 -39
397 -32 214 14 476 61 627 113 128 44 119 13 116 376 l-3 312 -78 3 c-92 3
-76 29 -148 -232 -60 -218 -112 -377 -135 -411 -9 -15 -35 -35 -57 -47 -38
-19 -53 -20 -231 -15 -156 4 -205 9 -265 26 -368 108 -588 409 -666 913 -22
143 -30 445 -16 593 57 581 300 949 696 1056 90 25 388 44 443 30 75 -21 93
-57 171 -351 78 -290 93 -339 107 -350 7 -6 44 -10 86 -8 l73 3 3 322 2 321
-26 21 c-52 41 -293 96 -544 125 -146 17 -237 18 -370 5z"/>
<path d="M3606 3898 c-19 -30 -77 -216 -78 -249 -1 -14 17 -56 40 -93 23 -38
55 -101 71 -141 42 -100 149 -478 206 -725 26 -113 70 -270 96 -350 27 -79 49
-152 49 -162 0 -11 -11 -19 -32 -23 -18 -3 -200 -5 -405 -3 -277 2 -375 6
-384 15 -10 10 -10 26 -1 75 12 67 97 359 187 643 133 423 169 565 152 602 -5
13 -14 23 -18 23 -13 0 -36 -51 -44 -95 -7 -38 -65 -221 -393 -1235 -283 -874
-265 -822 -292 -841 -16 -12 -61 -21 -128 -28 -57 -6 -116 -18 -131 -26 -29
-14 -45 -38 -34 -49 4 -3 186 -6 405 -6 l399 0 -3 21 c-2 12 -15 31 -31 43
-24 17 -46 21 -160 24 -72 2 -138 9 -144 14 -22 18 -15 64 27 174 39 104 123
394 135 467 3 21 20 53 37 72 l30 35 417 0 c393 0 419 -1 435 -18 22 -26 66
-147 125 -354 28 -96 64 -206 81 -246 32 -76 37 -114 18 -130 -7 -5 -74 -17
-148 -26 -134 -17 -180 -32 -180 -61 0 -13 77 -15 599 -15 406 0 602 3 606 10
9 15 -14 41 -52 56 -17 8 -65 16 -105 20 -110 8 -116 10 -138 54 -11 22 -210
599 -442 1282 -231 684 -425 1249 -431 1256 -7 9 -53 12 -168 12 -154 0 -159
-1 -173 -22z"/>
</g>
</svg>
